<svg xmlns="http://www.w3.org/2000/svg" fill="white" viewBox="0 0 24 24">
  <path d="M12 2a10 10 0 100 20 10 10 0 000-20zm6.93 6h-3.17a15.47 15.47 0 00-1.26-3.34A8.03 8.03 0 0118.93 8zM12 4c.73 1.01 1.31 2.18 1.7 3.5h-3.4C10.69 6.18 11.27 5.01 12 4zM8.5 13c-.03-.33-.05-.66-.05-1s.02-.67.05-1h7c.03.33.05.66.05 1s-.02.67-.05 1h-7zm.2 2h6.6c-.39 1.32-.97 2.49-1.7 3.5-.73-1.01-1.31-2.18-1.7-3.5zM4 12c0-.34.03-.67.07-1h3.11a17.9 17.9 0 000 2H4.07c-.04-.33-.07-.66-.07-1zm.07-3h3.17a15.47 15.47 0 011.26-3.34A8.03 8.03 0 004.07 9zM8.5 18.5A15.47 15.47 0 017.24 15H4.07a8.03 8.03 0 004.43 3.5zM15.5 5.5a15.47 15.47 0 011.26 3.34h3.17a8.03 8.03 0 00-4.43-3.34zM15.5 18.5c.73-1.01 1.31-2.18 1.7-3.5h3.17a8.03 8.03 0 01-4.87 3.5z"/>
</svg>