<svg xmlns="http://www.w3.org/2000/svg" viewBox="0 0 64 64">
  <circle cx="32" cy="32" r="30" fill="#0b1220"/>
  <path fill="white" d="M32 16a16 16 0 100 32 16 16 0 000-32zm0 2c1.3 0 2.6.3 3.7.8-.5.7-.9 1.5-1.3 2.4H29.6c-.4-.9-.8-1.7-1.3-2.4A13.9 13.9 0 0132 18zm-5.2 1.9c.5.8 1 1.7 1.3 2.7h-5.4a13.9 13.9 0 014.1-2.7zM18 32c0-1.1.1-2.1.4-3.1h5.9c-.1 1-.1 2-.1 3s0 2.1.1 3h-5.9c-.3-1-.4-2-.4-3zm1.4 5h5.4c.3 1 .7 1.9 1.3 2.7a13.9 13.9 0 01-4.1-2.7zm5.4-10h-5.4a13.9 13.9 0 014.1-2.7c-.5.8-.9 1.7-1.3 2.7zm5.2 13c-.6-.7-1.1-1.6-1.5-2.5h6.8c-.4.9-.9 1.8-1.5 2.5-.7.8-1.6 1.3-2.3 1.3s-1.6-.5-2.3-1.3zm2.3-6.5c-.3 0-.6 0-.9-.1.1-1 .1-2 .1-3s0-2-.1-3c.3 0 .6-.1.9-.1s.6 0 .9.1c-.1 1-.1 2-.1 3s0 2 .1 3c-.3.1-.6.1-.9.1zm5.5 6.5c-.5-.8-1-1.6-1.3-2.5h5.4a13.9 13.9 0 01-4.1 2.5zm-1.3-10a14.3 14.3 0 011.3-2.7 13.9 13.9 0 014.1 2.7h-5.4zm6.8 10c.5-.8.9-1.7 1.3-2.7h5.4a13.9 13.9 0 01-4.1 2.7zm1.8-5a21.2 21.2 0 000-6h5.8c.3 1 .4 2 .4 3s-.1 2-.4 3h-5.8zm-1.8-8a13.9 13.9 0 00-1.3-2.7 13.9 13.9 0 014.1 2.7h-2.8z"/>
</svg>